<?xml version="1.0" standalone="no"?>
<!DOCTYPE svg PUBLIC "-//W3C//DTD SVG 20010904//EN"
 "http://www.w3.org/TR/2001/REC-SVG-20010904/DTD/svg10.dtd">
<svg version="1.0" xmlns="http://www.w3.org/2000/svg"
 width="872.000000pt" height="872.000000pt" viewBox="0 0 872.000000 872.000000"
 preserveAspectRatio="xMidYMid meet">
<metadata>
Created by potrace 1.14, written by Peter Selinger 2001-2017
</metadata>
<g transform="translate(0.000000,872.000000) scale(0.100000,-0.100000)"
fill="#000000" stroke="none">
<path d="M2858 7325 c-2 -3 -33 -7 -68 -10 -62 -5 -277 -38 -330 -50 -14 -3
-36 -8 -50 -11 -43 -9 -144 -35 -160 -41 -8 -3 -24 -8 -35 -10 -11 -2 -42 -11
-70 -20 -27 -9 -54 -18 -60 -19 -11 -2 -188 -69 -220 -83 -54 -23 -341 -165
-345 -170 -3 -3 -21 -15 -40 -25 -36 -20 -224 -142 -250 -163 -107 -84 -221
-176 -245 -198 -106 -94 -266 -261 -326 -340 -13 -16 -26 -32 -29 -35 -4 -3
-30 -36 -58 -75 -29 -38 -56 -74 -60 -80 -4 -5 -23 -35 -42 -65 -19 -30 -37
-57 -41 -60 -14 -10 -176 -322 -211 -405 -9 -22 -23 -56 -31 -75 -36 -84 -118
-362 -133 -450 -3 -14 -11 -61 -19 -106 -25 -135 -30 -210 -30 -439 0 -194 7
-325 20 -390 3 -11 7 -37 10 -58 4 -31 29 -156 40 -202 57 -244 178 -549 299
-755 15 -25 34 -60 43 -77 9 -18 20 -33 25 -33 4 0 8 -5 8 -12 0 -6 11 -26 25
-44 14 -18 25 -37 25 -42 0 -6 3 -12 8 -14 4 -1 34 -39 66 -83 70 -95 140
-178 216 -259 48 -50 82 -84 184 -181 12 -11 48 -42 81 -70 33 -27 62 -52 65
-55 16 -17 179 -134 198 -143 12 -6 22 -14 22 -19 0 -4 6 -8 14 -8 8 0 16 -3
18 -7 4 -10 107 -73 119 -73 5 0 9 -3 9 -7 0 -5 10 -13 23 -19 12 -6 78 -40
147 -76 69 -35 128 -65 132 -66 5 -1 23 -9 40 -16 18 -8 53 -23 78 -34 25 -11
63 -25 85 -32 22 -7 45 -16 50 -20 6 -4 33 -13 60 -20 28 -7 56 -17 63 -23 6
-5 12 -7 12 -4 0 4 19 0 41 -9 23 -8 51 -16 63 -19 12 -2 39 -9 61 -15 22 -6
51 -13 65 -16 14 -3 45 -10 70 -15 25 -6 56 -13 70 -15 87 -16 141 -24 185
-30 28 -3 61 -7 75 -9 74 -10 240 -19 350 -18 107 1 275 9 275 13 0 1 14 3 30
5 98 10 186 24 310 49 308 63 740 228 1003 383 40 24 75 43 77 43 13 0 253
169 345 243 252 202 428 409 558 657 39 75 96 227 106 285 l6 31 -103 -3
c-231 -5 -515 -4 -567 3 -66 8 -226 8 -295 -1 -69 -8 -207 -44 -224 -58 -8 -7
-17 -11 -20 -11 -22 5 -221 -98 -229 -118 -2 -4 -8 -8 -13 -8 -5 0 -21 -10
-35 -23 -26 -21 -35 -29 -105 -92 -19 -17 -56 -48 -84 -70 -27 -22 -51 -43
-53 -47 -2 -5 -10 -8 -17 -8 -7 0 -15 -3 -17 -8 -6 -15 -220 -137 -258 -147
-3 -1 -18 -7 -35 -14 -116 -48 -273 -89 -410 -107 -77 -10 -401 -10 -480 1
-86 11 -100 13 -100 15 0 1 -11 3 -25 4 -177 20 -553 165 -714 275 -25 17 -47
31 -50 31 -10 0 -184 133 -249 192 -188 169 -362 390 -457 583 -8 17 -18 32
-21 35 -8 6 -91 217 -112 285 -33 106 -53 202 -61 286 -2 20 -5 40 -8 45 -9
16 -6 367 3 429 5 33 12 75 14 93 3 19 12 65 21 104 9 39 18 77 19 87 2 9 4
17 5 19 2 1 4 7 5 12 1 6 3 11 5 13 1 1 3 9 5 18 14 75 171 424 197 440 5 3
10 10 10 15 1 9 65 110 83 130 6 7 19 24 30 40 74 102 252 281 367 367 138
103 373 237 478 272 3 1 18 7 34 14 67 27 218 72 309 91 136 28 209 35 382 34
196 -1 279 -11 440 -50 89 -22 215 -61 270 -84 122 -50 222 -99 294 -142 34
-21 65 -38 67 -38 10 0 163 -106 244 -169 83 -64 117 -92 169 -140 80 -72 161
-112 241 -118 108 -8 1092 -8 1096 -1 14 23 -102 283 -185 418 -105 169 -312
407 -456 525 -27 22 -53 45 -59 50 -29 29 -182 139 -271 197 -202 129 -429
243 -655 326 -30 11 -64 24 -75 28 -11 4 -22 8 -25 9 -11 2 -86 27 -100 32 -8
3 -19 7 -25 9 -5 1 -28 7 -50 13 -78 20 -160 41 -180 45 -47 11 -183 37 -215
42 -19 3 -46 7 -60 9 -14 3 -50 7 -80 11 -30 3 -71 8 -90 11 -41 6 -536 13
-542 8z"/>
<path d="M5478 7325 c-2 -3 -45 -7 -94 -10 -49 -3 -102 -8 -119 -9 -93 -11
-151 -19 -155 -21 -3 -2 -27 -6 -55 -9 -55 -7 -90 -14 -90 -16 0 -1 -9 -3 -20
-5 -11 -2 -31 -6 -45 -10 -14 -3 -38 -9 -55 -12 -16 -3 -37 -9 -46 -14 -9 -4
-19 -5 -23 -2 -3 3 -6 2 -6 -3 0 -12 85 -84 99 -84 5 0 11 -4 13 -9 2 -8 260
-217 413 -336 21 -16 52 -42 69 -56 17 -14 90 -70 161 -124 72 -54 132 -101
135 -105 3 -4 34 -26 70 -50 36 -24 68 -48 72 -54 4 -6 8 -7 8 -2 0 5 8 2 18
-6 31 -27 164 -84 322 -137 163 -56 356 -142 453 -204 31 -20 60 -37 62 -37 7
0 101 -67 180 -129 336 -263 597 -666 689 -1062 43 -185 54 -292 51 -484 -3
-144 -6 -191 -21 -275 -2 -14 -7 -41 -10 -60 -15 -96 -77 -295 -128 -412 -9
-21 -17 -41 -17 -45 0 -5 -4 -12 -9 -18 -4 -5 -24 -41 -45 -80 -21 -38 -44
-77 -51 -86 -8 -8 -14 -19 -14 -22 0 -7 -94 -141 -115 -163 -5 -6 -28 -33 -50
-59 -114 -136 -273 -276 -440 -385 -182 -119 -512 -257 -705 -295 -96 -19
-197 -65 -269 -123 -89 -72 -221 -182 -300 -250 -30 -26 -64 -54 -75 -62 -12
-8 -37 -29 -56 -46 -19 -18 -84 -74 -145 -125 -60 -52 -115 -98 -121 -104 -6
-5 -37 -32 -69 -60 -33 -27 -79 -68 -104 -89 -26 -21 -47 -42 -49 -46 -3 -9
162 -63 258 -84 105 -23 115 -25 270 -43 80 -10 401 -10 490 -1 36 4 88 10
115 12 28 3 61 8 75 11 14 3 41 7 60 10 46 6 170 32 245 51 33 9 67 18 75 19
8 2 15 4 15 5 0 1 8 3 18 5 10 2 76 22 145 45 372 123 708 298 1017 531 122
92 172 136 295 259 110 110 124 126 203 225 26 33 53 67 60 75 7 8 37 51 68
95 146 210 274 456 359 695 5 14 15 39 21 55 7 17 13 37 14 45 1 8 10 41 20
74 9 32 19 66 20 75 2 9 4 16 5 16 1 0 3 9 5 19 2 11 10 51 19 90 18 86 32
177 43 271 14 132 6 615 -11 643 -2 4 -7 31 -10 60 -3 29 -7 56 -10 60 -2 4
-7 28 -11 52 -10 68 -61 255 -101 371 -137 394 -367 776 -639 1059 -73 77
-202 198 -254 240 -23 19 -57 47 -74 62 -18 15 -35 28 -39 28 -4 0 -13 6 -20
13 -7 7 -35 28 -63 47 -27 19 -52 37 -55 40 -10 10 -69 50 -74 50 -2 0 -40 22
-83 49 -76 47 -359 192 -399 204 -10 3 -66 24 -124 46 -58 23 -112 43 -120 45
-8 2 -22 6 -30 9 -35 13 -122 38 -220 63 -115 28 -115 28 -180 39 -25 4 -54 9
-65 11 -46 9 -73 13 -120 19 -27 3 -66 8 -85 10 -19 3 -80 7 -134 10 -55 3
-101 7 -103 9 -3 2 -18 0 -34 -4 -16 -5 -29 -5 -29 -2 0 9 -88 7 -97 -1 -3 -4
-13 -2 -23 3 -10 5 -19 7 -22 5z"/>
<path d="M3218 6115 c-2 -2 -28 -5 -57 -8 -65 -7 -180 -62 -232 -111 -67 -63
-129 -155 -198 -293 -76 -153 -111 -228 -111 -240 0 -4 -6 -19 -13 -33 -13
-25 -85 -226 -92 -258 -2 -9 -11 -42 -20 -72 -9 -30 -18 -66 -21 -80 -3 -14
-7 -33 -10 -42 -15 -50 -51 -269 -60 -368 -13 -137 -6 -507 11 -586 2 -11 7
-45 11 -75 3 -30 8 -57 10 -60 2 -4 6 -24 10 -45 3 -22 10 -57 16 -79 5 -22
12 -50 14 -63 14 -74 132 -421 163 -480 6 -9 32 -65 60 -125 87 -186 191 -327
302 -409 20 -15 67 -39 105 -55 59 -23 83 -27 169 -27 92 0 121 3 183 18 12 3
30 8 40 10 92 22 288 106 390 168 34 21 64 38 67 38 2 0 35 21 72 47 37 26 69
48 71 49 2 1 -25 46 -60 101 -35 55 -68 108 -75 119 -101 160 -249 447 -298
579 -63 165 -78 220 -110 380 -21 105 -23 143 -20 300 3 169 6 213 22 275 11
43 13 54 16 75 2 11 6 27 9 35 3 8 20 60 38 115 18 55 50 138 71 183 21 46 39
86 39 88 0 3 28 53 61 112 34 59 67 116 73 127 18 32 203 306 240 355 l34 45
-221 85 c-191 73 -407 151 -457 165 -70 20 -234 47 -242 40z"/>
</g>
</svg>
